<?xml version="1.0" encoding="UTF-8" standalone="no"?>
<svg
   xmlns:dc="http://purl.org/dc/elements/1.1/"
   xmlns:cc="http://creativecommons.org/ns#"
   xmlns:rdf="http://www.w3.org/1999/02/22-rdf-syntax-ns#"
   xmlns:svg="http://www.w3.org/2000/svg"
   xmlns="http://www.w3.org/2000/svg"
   viewBox="0 0 89.226669 37.52"
   height="37.52"
   width="89.226669"
   xml:space="preserve"
   id="svg2"
   version="1.1"><metadata
     id="metadata8"><rdf:RDF><cc:Work
         rdf:about=""><dc:format>image/svg+xml</dc:format><dc:type
           rdf:resource="http://purl.org/dc/dcmitype/StillImage" /></cc:Work></rdf:RDF></metadata><defs
     id="defs6" /><g
     transform="matrix(1.3333333,0,0,-1.3333333,0,37.52)"
     id="g10"><g
       transform="scale(0.1)"
       id="g12"><path
         id="path14"
         style="fill:#231f20;fill-opacity:1;fill-rule:nonzero;stroke:none"
         d="M 0,0 39.8828,130.059 H 90.9102 L 65,47.0039 62.2461,36.9844 c 0,0 9.8984,0.0664 19.3555,0.457 8.0625,0.3516 18.8674,1.3477 18.8674,1.3477 13.187,1.0742 23.969,4.2773 29.058,14.9023 11.875,24.8438 -26.929,38.9063 -40.152,45.0195 l 23.02,10.9061 c 4.238,2.571 9.226,4.856 13.164,7.278 7.312,4.511 16.875,9.062 18.832,15.625 2.597,8.75 -5.813,16.66 -27.614,16.503 l -18.3082,0.157 -79.8204,-0.559 14.0508,39.641 H 155.52 c 47.996,0 53.257,-22.801 47.097,-43.555 -5.488,-18.418 -21.758,-30.867 -39.75,-42.383 C 179.23,88.9648 189.449,70.0508 182.32,46.0938 175.934,24.6484 155.297,0 99.0039,0 H 0" /><path
         id="path16"
         style="fill:#231f20;fill-opacity:1;fill-rule:nonzero;stroke:none"
         d="M 230.645,1.46484 H 190.559 L 232.934,139.961 H 273.02 L 230.645,1.46484" /><path
         id="path18"
         style="fill:#231f20;fill-opacity:1;fill-rule:nonzero;stroke:none"
         d="m 367.32,1.46484 h -16.191 c -57.613,0 -85.965,39.43356 -72.774,83.77736 8.27,27.8048 33.368,53.9298 84.317,53.9298 h 57.441 l -21.347,-31.008 h -34.883 c -8.77,0 -32.988,0 -40.77,-26.1327 -8.215,-27.6446 14.578,-51.5821 59.637,-49.5508 L 367.32,1.46484" /><path
         id="path20"
         style="fill:#231f20;fill-opacity:1;fill-rule:nonzero;stroke:none"
         d="m 539.359,108.164 h -37.566 c -4.395,0 -16.23,0.84 -17.844,-4.551 -1.16,-3.8864 2.121,-6.9138 4.426,-9.6091 L 511.227,66.1914 C 519.059,56.7578 526.578,46.9727 522.523,33.3281 518.863,21.0156 504.488,1.46484 467.105,1.46484 h -72.851 l 14.902,31.01566 h 45.274 c 4.375,0 16.238,-0.8399 17.851,4.5508 1.141,3.8671 -2.148,6.8945 -4.453,9.6093 l -22.051,27.6446 c -7.578,9.6132 -15.117,19.375 -11.054,33.0388 3.652,12.305 18.047,31.848 55.418,31.848 h 59.113 l -9.895,-31.008" /><path
         id="path22"
         style="fill:#231f20;fill-opacity:1;fill-rule:nonzero;stroke:none"
         d="M 575.621,1.46484 H 535.523 L 579.164,140.977 h 40.078 L 575.621,1.46484" /><path
         id="path24"
         style="fill:#231f20;fill-opacity:1;fill-rule:nonzero;stroke:none"
         d="m 633.922,181.836 c 0,-12.625 -10.703,-22.871 -23.879,-22.871 -13.191,0 -23.875,10.246 -23.875,22.871 0,12.637 10.684,22.891 23.875,22.891 13.176,0 23.879,-10.254 23.879,-22.891" /><path
         id="path26"
         style="fill:#231f20;fill-opacity:1;fill-rule:nonzero;stroke:none"
         d="m 284.789,180.676 c 0,-12.641 -10.695,-22.883 -23.891,-22.883 -13.171,0 -23.878,10.242 -23.878,22.883 0,12.644 10.707,22.879 23.878,22.879 13.196,0 23.891,-10.235 23.891,-22.879" /><path
         id="path28"
         style="fill:#bdbcbc;fill-opacity:1;fill-rule:nonzero;stroke:none"
         d="m 443.121,264.629 c -122.437,0 -176.668,-59.356 -176.668,-59.356 28.406,31.524 98.035,76.153 176.539,76.153 80.481,0 143.059,-44.629 164.817,-76.153 0,0 -42.266,59.356 -164.688,59.356" /><path
         id="path30"
         style="fill:#211d1d;fill-opacity:1;fill-rule:nonzero;stroke:none"
         d="m 655.602,192.188 c 1.218,0 2.128,0.117 2.695,0.351 0.566,0.246 0.996,0.586 1.308,1.016 0.293,0.433 0.45,0.929 0.45,1.48 0,0.844 -0.293,1.559 -0.879,2.129 -0.598,0.574 -1.348,0.859 -2.266,0.859 -0.39,0 -0.84,-0.082 -1.308,-0.246 z m -3.704,6.523 h 6.036 c 1.515,0 2.668,-0.34 3.449,-1.023 0.801,-0.68 1.199,-1.512 1.199,-2.481 0,-0.789 -0.262,-1.484 -0.809,-2.082 -0.527,-0.602 -1.406,-1.062 -2.656,-1.387 l 3.242,-4.668 c 0.391,-0.554 0.743,-0.937 1.055,-1.152 0.195,-0.125 0.469,-0.199 0.82,-0.234 v -0.508 h -2.871 l -4.523,6.347 h -1.238 v -4.847 c 0.058,-0.348 0.195,-0.59 0.437,-0.758 0.246,-0.156 0.715,-0.234 1.418,-0.234 v -0.508 h -5.781 v 0.508 c 0.508,0 0.859,0.058 1.074,0.179 0.215,0.125 0.371,0.293 0.469,0.535 0.066,0.165 0.105,0.649 0.105,1.45 v 8.187 c 0,0.778 -0.019,1.235 -0.047,1.363 -0.078,0.243 -0.207,0.43 -0.39,0.555 -0.196,0.133 -0.528,0.195 -0.989,0.195 z m 6.145,3.316 c -1.719,0 -3.371,-0.441 -5,-1.312 -1.613,-0.879 -2.871,-2.121 -3.789,-3.746 -0.899,-1.621 -1.359,-3.317 -1.359,-5.074 0,-1.754 0.449,-3.426 1.339,-5.04 0.899,-1.601 2.137,-2.851 3.75,-3.753 1.61,-0.899 3.301,-1.34 5.059,-1.34 1.746,0 3.437,0.441 5.039,1.34 1.621,0.902 2.871,2.152 3.77,3.753 0.898,1.614 1.328,3.286 1.328,5.04 0,1.757 -0.45,3.453 -1.36,5.074 -0.906,1.625 -2.168,2.867 -3.789,3.746 -1.609,0.871 -3.289,1.312 -4.988,1.312 z m 0,0.965 c 1.855,0 3.691,-0.472 5.449,-1.433 1.785,-0.954 3.172,-2.321 4.16,-4.102 1.016,-1.777 1.504,-3.633 1.504,-5.562 0,-1.918 -0.488,-3.766 -1.465,-5.528 -0.988,-1.762 -2.363,-3.133 -4.132,-4.117 -1.766,-0.965 -3.602,-1.461 -5.516,-1.461 -1.934,0 -3.77,0.496 -5.527,1.461 -1.77,0.984 -3.137,2.355 -4.121,4.117 -0.977,1.762 -1.465,3.61 -1.465,5.528 0,1.929 0.488,3.785 1.492,5.562 0.988,1.781 2.383,3.148 4.152,4.102 1.785,0.961 3.594,1.433 5.469,1.433" /></g></g></svg>